PathFileType	4	(X/Y/Z)	T:\Spectrum_Optical_Capture\Spectrum_Demo_10_05_01_TRUECOMBAT\07_Smooth_Trc\TC_Jump_1.trc
DataRate	CameraRate	NumFrames	NumMarkers	Units	OrigDataRate	OrigDataStartFrame	OrigNumFrames
60.0	60.0	       4	46	mm	60.0	685	       913
Frame#	Time	HeadTop			ForeHead			LFrontHead			RFrontHead			TopSpine			Sternum			Scapula			LFShoulder			LShoulder			LBicep			LOuterElbow			LHand			LWristPinky			LWristThumb			RFShoulder			RShoulder			RBicep			ROuterElbow			RHand			RWristPinky			RWristThumb			MiddleBack			LowerBack			Root			Pelvis			LBackWaist			RBackWaist			LFrontWaist			RFrontWaist			Bellymarker			LThigh			LOuterKnee			LAnkle			LHeel			LOuterMeta			LToe			RThigh			ROuterKnee			RAnkle			RHeel			ROuterMeta			RToe			Floor1			Floor2			Floor3			Floor4			
		X1	Y1	Z1	X2	Y2	Z2	X3	Y3	Z3	X4	Y4	Z4	X5	Y5	Z5	X6	Y6	Z6	X7	Y7	Z7	X8	Y8	Z8	X9	Y9	Z9	X10	Y10	Z10	X11	Y11	Z11	X12	Y12	Z12	X13	Y13	Z13	X14	Y14	Z14	X15	Y15	Z15	X16	Y16	Z16	X17	Y17	Z17	X18	Y18	Z18	X19	Y19	Z19	X20	Y20	Z20	X21	Y21	Z21	X22	Y22	Z22	X23	Y23	Z23	X24	Y24	Z24	X25	Y25	Z25	X26	Y26	Z26	X27	Y27	Z27	X28	Y28	Z28	X29	Y29	Z29	X30	Y30	Z30	X31	Y31	Z31	X32	Y32	Z32	X33	Y33	Z33	X34	Y34	Z34	X35	Y35	Z35	X36	Y36	Z36	X37	Y37	Z37	X38	Y38	Z38	X39	Y39	Z39	X40	Y40	Z40	X41	Y41	Z41	X42	Y42	Z42	X43	Y43	Z43	X44	Y44	Z44	X45	Y45	Z45	X46	Y46	Z46	

685	11.400	2191.67847	1497.62537	2716.91089	2150.53320	1346.51074	2657.89014	2120.70801	1364.09058	2772.87817	2261.21899	1367.22571	2653.00146	2352.22290	1310.53784	2887.14014	2293.88818	1015.18854	2824.88037	2517.39331	1219.70801	2861.19824	2208.65991	1122.78418	2858.63208	2151.70435	1245.44312	2954.97705	2161.94629	1137.89551	3136.29077	2246.05518	1154.39001	3235.43945	2205.50928	910.89771	3301.63770	2243.20605	832.29120	3363.04517	2169.77441	792.43384	3300.31543	2306.94019	1127.08582	2741.78955	2408.07642	1256.71716	2694.40356	2514.65967	1105.17114	2683.02173	2531.60938	937.42682	2703.37817	2300.25220	881.63092	2620.81592	2231.56445	816.41766	2622.27148	2163.95190	876.07440	2592.11353	2401.92212	1254.39795	2934.10327	2455.55591	1154.58862	2996.87769	2489.13281	1054.50769	3057.41089	2338.96021	1064.91077	3098.90820	2372.13550	958.94904	3155.52271	2618.14673	953.56750	3007.64600	2296.15015	897.04108	3055.08276	2566.22119	889.87866	2881.52100	2372.40137	848.66199	2879.88452	2273.76636	688.28900	3121.02295	2237.55859	533.15393	3040.97876	2325.94580	173.55957	3136.24561	2437.16187	136.68205	3184.40234	2306.06299	64.95589	3119.61157	2304.85352	44.64804	2997.94580	2644.54272	636.88550	2958.17603	2686.68726	502.60248	3050.74731	2858.42529	308.08444	3306.72119	2848.12598	343.78061	3415.49658	2927.20557	203.09686	3382.09009	2861.32178	98.81501	3394.32300	4200.45166	32.54617	-4241.14063	-3734.26147	-12.67334	-4192.63623	-3782.64746	-15.99918	4948.41895	4163.69434	21.14541	4907.02100	
686	11.417	2161.76563	1500.28040	2684.70337	2119.32959	1349.75220	2625.57788	2089.71948	1367.57190	2740.69751	2230.60645	1369.80640	2621.30786	2320.24609	1307.47449	2857.92114	2263.55176	1012.58344	2785.69702	2485.29443	1218.82141	2835.96509	2180.01465	1120.16577	2821.01123	2121.24072	1237.93555	2928.43311	2130.84058	1106.66724	3097.15234	2214.32300	1105.91809	3197.97314	2162.83936	857.92255	3222.72583	2196.36279	769.89642	3269.85596	2122.69458	742.53619	3201.49463	2280.92847	1124.62158	2705.54028	2386.13013	1252.41235	2663.58252	2502.56445	1105.55908	2666.23608	2530.07642	942.18225	2697.01758	2322.26392	828.70337	2611.25879	2271.38794	749.92200	2619.93726	2194.14893	783.51477	2580.63525	2369.01245	1251.20044	2906.17236	2421.95605	1150.17017	2966.91577	2454.40967	1049.80762	3024.42896	2303.06323	1058.31580	3064.73804	2336.26001	954.87146	3119.41479	2584.26953	948.90417	2973.49707	2262.58789	892.48132	3017.21460	2533.67188	888.10559	2845.17383	2340.45117	845.72125	2841.47412	2250.02075	675.26160	3094.08228	2224.31152	512.90967	3024.95605	2323.77588	163.94188	3142.08667	2436.56494	130.56194	3194.48926	2305.94775	56.65304	3129.13916	2306.27393	38.48022	3007.31006	2604.08838	634.30896	2904.27441	2637.64282	491.64099	2983.00830	2806.15527	317.24918	3238.24683	2794.44385	354.83401	3350.50830	2877.10815	217.80136	3312.96606	2813.89111	111.79720	3319.81885	4200.40088	32.52834	-4241.13525	-3734.28882	-12.64332	-4192.66797	-3782.65210	-16.00108	4948.42285	4163.43506	21.31265	4906.82129	
687	11.433	2132.64502	1501.13806	2652.98682	2088.95679	1351.03369	2593.57520	2059.09497	1369.16895	2708.58691	2200.51074	1370.46484	2589.95215	2288.50415	1301.70105	2829.75024	2232.55127	1007.74451	2746.44092	2452.94434	1214.70728	2811.47827	2151.00732	1115.34680	2782.71753	2089.94556	1227.96082	2900.60547	2097.52295	1072.78003	3052.05908	2179.35864	1052.52771	3151.85791	2115.67310	808.41187	3129.14258	2144.36011	713.30908	3158.84155	2072.04712	700.93689	3085.97876	2255.67651	1120.34985	2669.89258	2364.88013	1246.48132	2634.60059	2489.60205	1105.80957	2649.92651	2526.61499	948.37378	2690.45313	2356.71191	782.92004	2604.73682	2325.96167	696.52411	2621.73218	2248.54370	701.36798	2572.94409	2336.08374	1245.25146	2879.06982	2388.37476	1142.99463	2937.19092	2420.64526	1043.24866	2991.56177	2267.83960	1049.78992	3031.71240	2302.78247	950.07355	3085.01001	2551.26904	941.76068	2938.57349	2229.76880	887.00598	2981.59277	2500.25635	883.12134	2809.52393	2307.25806	840.24048	2805.43335	2227.93872	662.78491	3069.31104	2211.99878	494.62045	3010.67188	2322.45093	155.94360	3146.37769	2437.01392	125.97652	3202.29272	2306.84985	51.65078	3135.75854	2308.12427	36.19324	3012.87256	2562.07813	632.57501	2849.05273	2584.98828	483.06073	2911.36548	2748.26318	321.43445	3162.33472	2737.06714	358.16776	3279.40625	2819.76880	224.84254	3233.40967	2756.55566	119.21758	3231.82031	4200.43604	32.55171	-4241.14600	-3734.29883	-12.64043	-4192.68018	-3782.59814	-15.98064	4948.37549	4163.21680	21.45506	4906.61084	
688	11.450	2104.16357	1500.35876	2621.28125	2059.47437	1350.53064	2561.34888	2028.84973	1369.00623	2676.11719	2170.96289	1369.18005	2558.49536	2256.74902	1293.92505	2801.79053	2200.74878	1001.42023	2707.88647	2420.16626	1208.33899	2786.85156	2121.12134	1109.09375	2743.93384	2057.53418	1216.83264	2870.43066	2061.32471	1039.34155	2999.70557	2140.32007	998.25085	3095.20630	2064.60718	769.46509	3021.45386	2088.09546	670.68860	3031.05811	2018.91479	675.93689	2955.71094	2230.41455	1114.88257	2634.91089	2342.88940	1239.59546	2606.37036	2474.58887	1106.73596	2632.89282	2521.54785	957.55975	2682.89478	2400.34375	751.26312	2600.49805	2389.27197	663.49493	2625.88184	2320.85742	641.61749	2567.87939	2302.89917	1237.14575	2852.01563	2354.59741	1133.80603	2907.54395	2387.90112	1035.16504	2958.56128	2233.87280	1039.55945	2999.76611	2272.51123	944.47137	3052.57788	2519.23657	933.42603	2902.27783	2197.96582	880.74872	2948.77954	2466.14941	875.94702	2773.95020	2273.01636	832.91620	2772.03662	2207.68213	651.99847	3046.59619	2199.54736	480.00687	2997.68164	2321.05518	150.48993	3147.98096	2437.37231	123.91091	3206.08081	2307.92285	49.33918	3139.19800	2309.49048	36.07669	3015.02344	2517.91626	633.31952	2792.75659	2528.41943	478.99969	2836.52393	2685.48169	320.59521	3079.58691	2677.12915	353.46301	3202.16040	2755.64258	223.90860	3143.69287	2689.42700	121.05381	3132.66577	4200.54980	32.60778	-4241.16943	-3734.27832	-12.67827	-4192.66357	-3782.47827	-15.93716	4948.26709	4163.08594	21.43155	4906.39014	
